<svg width="1966" height="358" viewBox="0 0 1966 358" fill="none" xmlns="http://www.w3.org/2000/svg">
<path d="M561.783 285.3C545.283 285.3 531.167 282.458 519.433 276.775C507.883 271.092 498.442 263.575 491.108 254.225L512.833 231.675C519.983 239.925 527.683 246.067 535.933 250.1C544.367 253.95 553.35 255.875 562.883 255.875C573.883 255.875 582.317 253.4 588.183 248.45C594.05 243.5 596.983 236.35 596.983 227C596.983 219.3 594.783 213.525 590.383 209.675C585.983 205.642 578.558 202.8 568.108 201.15L547.758 197.85C529.975 194.733 517.325 188.317 509.808 178.6C502.292 168.7 498.533 157.058 498.533 143.675C498.533 125.342 504.492 111.317 516.408 101.6C528.325 91.7 544.825 86.75 565.908 86.75C580.942 86.75 593.867 89.1333 604.683 93.9C615.683 98.6667 624.483 105.175 631.083 113.425L609.908 135.975C604.775 129.925 598.633 125.158 591.483 121.675C584.333 118.008 575.9 116.175 566.183 116.175C545.283 116.175 534.833 124.792 534.833 142.025C534.833 149.358 537.033 154.95 541.433 158.8C545.833 162.65 553.35 165.492 563.983 167.325L584.058 170.9C600.742 174.017 613.117 180.158 621.183 189.325C629.25 198.492 633.283 210.225 633.283 224.525C633.283 233.508 631.725 241.758 628.608 249.275C625.492 256.608 620.908 263.025 614.858 268.525C608.808 273.842 601.292 277.967 592.308 280.9C583.508 283.833 573.333 285.3 561.783 285.3ZM728.876 285.3C718.059 285.3 708.343 283.558 699.726 280.075C691.293 276.592 684.051 271.642 678.001 265.225C672.134 258.808 667.551 251.017 664.251 241.85C661.134 232.683 659.576 222.417 659.576 211.05C659.576 199.683 661.134 189.417 664.251 180.25C667.551 171.083 672.134 163.292 678.001 156.875C684.051 150.458 691.293 145.508 699.726 142.025C708.343 138.542 718.059 136.8 728.876 136.8C739.509 136.8 749.134 138.542 757.751 142.025C766.368 145.508 773.609 150.458 779.476 156.875C785.526 163.292 790.109 171.083 793.226 180.25C796.526 189.417 798.176 199.683 798.176 211.05C798.176 222.417 796.526 232.683 793.226 241.85C790.109 251.017 785.526 258.808 779.476 265.225C773.609 271.642 766.368 276.592 757.751 280.075C749.134 283.558 739.509 285.3 728.876 285.3ZM728.876 258.35C738.959 258.35 746.934 255.325 752.801 249.275C758.668 243.042 761.601 233.967 761.601 222.05V200.05C761.601 188.133 758.668 179.15 752.801 173.1C746.934 166.867 738.959 163.75 728.876 163.75C718.793 163.75 710.818 166.867 704.951 173.1C699.084 179.15 696.151 188.133 696.151 200.05V222.05C696.151 233.967 699.084 243.042 704.951 249.275C710.818 255.325 718.793 258.35 728.876 258.35ZM831.069 254.225H876.169V106.275H831.069V78.5H911.369V254.225H956.744V282H831.069V254.225ZM1056.46 285.3C1039.96 285.3 1025.84 282.458 1014.11 276.775C1002.56 271.092 993.119 263.575 985.786 254.225L1007.51 231.675C1014.66 239.925 1022.36 246.067 1030.61 250.1C1039.04 253.95 1048.03 255.875 1057.56 255.875C1068.56 255.875 1076.99 253.4 1082.86 248.45C1088.73 243.5 1091.66 236.35 1091.66 227C1091.66 219.3 1089.46 213.525 1085.06 209.675C1080.66 205.642 1073.24 202.8 1062.79 201.15L1042.44 197.85C1024.65 194.733 1012 188.317 1004.49 178.6C996.969 168.7 993.211 157.058 993.211 143.675C993.211 125.342 999.169 111.317 1011.09 101.6C1023 91.7 1039.5 86.75 1060.59 86.75C1075.62 86.75 1088.54 89.1333 1099.36 93.9C1110.36 98.6667 1119.16 105.175 1125.76 113.425L1104.59 135.975C1099.45 129.925 1093.31 125.158 1086.16 121.675C1079.01 118.008 1070.58 116.175 1060.86 116.175C1039.96 116.175 1029.51 124.792 1029.51 142.025C1029.51 149.358 1031.71 154.95 1036.11 158.8C1040.51 162.65 1048.03 165.492 1058.66 167.325L1078.74 170.9C1095.42 174.017 1107.79 180.158 1115.86 189.325C1123.93 198.492 1127.96 210.225 1127.96 224.525C1127.96 233.508 1126.4 241.758 1123.29 249.275C1120.17 256.608 1115.59 263.025 1109.54 268.525C1103.49 273.842 1095.97 277.967 1086.99 280.9C1078.19 283.833 1068.01 285.3 1056.46 285.3ZM1226.85 285.3C1215.49 285.3 1205.4 283.558 1196.6 280.075C1187.8 276.592 1180.38 271.642 1174.33 265.225C1168.46 258.808 1163.97 251.108 1160.85 242.125C1157.74 232.958 1156.18 222.692 1156.18 211.325C1156.18 199.775 1157.74 189.417 1160.85 180.25C1164.15 171.083 1168.74 163.292 1174.6 156.875C1180.47 150.458 1187.53 145.508 1195.78 142.025C1204.21 138.542 1213.65 136.8 1224.1 136.8C1234.37 136.8 1243.63 138.542 1251.88 142.025C1260.13 145.325 1267.1 150.092 1272.78 156.325C1278.65 162.558 1283.14 170.075 1286.25 178.875C1289.37 187.675 1290.93 197.392 1290.93 208.025V219.575H1191.38V223.15C1191.38 233.417 1194.59 241.758 1201 248.175C1207.42 254.408 1216.4 257.525 1227.95 257.525C1236.75 257.525 1244.27 255.783 1250.5 252.3C1256.92 248.633 1262.24 243.867 1266.45 238L1286.53 258.075C1281.4 265.592 1273.88 272.008 1263.98 277.325C1254.26 282.642 1241.89 285.3 1226.85 285.3ZM1224.38 162.65C1214.48 162.65 1206.5 165.767 1200.45 172C1194.4 178.233 1191.38 186.483 1191.38 196.75V198.675H1255.73V196.2C1255.73 185.933 1252.89 177.775 1247.2 171.725C1241.7 165.675 1234.1 162.65 1224.38 162.65ZM1440.7 282C1432.08 282 1425.39 279.892 1420.62 275.675C1416.04 271.275 1413.29 265.225 1412.37 257.525H1411C1408.43 266.325 1403.39 273.2 1395.87 278.15C1388.35 282.917 1379.1 285.3 1368.1 285.3C1353.8 285.3 1342.43 281.542 1334 274.025C1325.56 266.508 1321.35 256.058 1321.35 242.675C1321.35 214.075 1342.34 199.775 1384.32 199.775H1409.35V190.425C1409.35 181.442 1407.15 174.658 1402.75 170.075C1398.35 165.492 1391.2 163.2 1381.3 163.2C1372.31 163.2 1365.07 164.942 1359.57 168.425C1354.07 171.908 1349.4 176.4 1345.55 181.9L1325.47 164.85C1329.87 156.967 1336.93 150.367 1346.65 145.05C1356.55 139.55 1369.29 136.8 1384.87 136.8C1403.57 136.8 1418.15 141.2 1428.6 150C1439.23 158.617 1444.55 171.542 1444.55 188.775V255.6H1461.32V282H1440.7ZM1379.92 261.1C1388.35 261.1 1395.32 259.175 1400.82 255.325C1406.5 251.292 1409.35 245.883 1409.35 239.1V220.125H1385.15C1365.9 220.125 1356.27 226.175 1356.27 238.275V243.775C1356.27 249.458 1358.38 253.767 1362.6 256.7C1366.81 259.633 1372.59 261.1 1379.92 261.1ZM1491.46 254.225H1526.66V167.875H1491.46V140.1H1561.86V178.875H1564.06C1565.35 173.925 1567.09 169.158 1569.29 164.575C1571.67 159.808 1574.61 155.683 1578.09 152.2C1581.76 148.533 1586.16 145.6 1591.29 143.4C1596.42 141.2 1602.56 140.1 1609.71 140.1H1625.11V173.1H1595.96C1585.33 173.1 1576.99 176.217 1570.94 182.45C1564.89 188.683 1561.86 196.658 1561.86 206.375V254.225H1611.09V282H1491.46V254.225ZM1723.73 285.3C1712.91 285.3 1703.2 283.558 1694.58 280.075C1685.96 276.592 1678.63 271.642 1672.58 265.225C1666.71 258.808 1662.13 251.017 1658.83 241.85C1655.71 232.683 1654.16 222.417 1654.16 211.05C1654.16 199.683 1655.71 189.417 1658.83 180.25C1662.13 171.083 1666.71 163.292 1672.58 156.875C1678.63 150.458 1685.87 145.508 1694.31 142.025C1702.92 138.542 1712.64 136.8 1723.46 136.8C1738.49 136.8 1750.59 139.917 1759.76 146.15C1768.92 152.383 1775.89 160.633 1780.66 170.9L1753.43 185.75C1750.86 179.7 1747.2 174.842 1742.43 171.175C1737.85 167.325 1731.52 165.4 1723.46 165.4C1713.01 165.4 1704.94 168.425 1699.26 174.475C1693.76 180.525 1691.01 188.775 1691.01 199.225V222.875C1691.01 233.142 1693.76 241.392 1699.26 247.625C1704.94 253.675 1713.19 256.7 1724.01 256.7C1732.44 256.7 1739.13 254.775 1744.08 250.925C1749.21 247.075 1753.34 241.942 1756.46 235.525L1782.86 251.2C1778.09 261.283 1770.85 269.533 1761.13 275.95C1751.6 282.183 1739.13 285.3 1723.73 285.3ZM1821.25 78.5H1856.45V165.125H1857.82C1860.94 157.425 1865.71 150.825 1872.12 145.325C1878.72 139.642 1887.8 136.8 1899.35 136.8C1913.28 136.8 1924.56 141.475 1933.17 150.825C1941.97 159.992 1946.37 173.192 1946.37 190.425V282H1911.17V195.375C1911.17 174.842 1902.28 164.575 1884.5 164.575C1880.83 164.575 1877.35 165.033 1874.05 165.95C1870.75 166.867 1867.72 168.333 1864.97 170.35C1862.41 172.183 1860.3 174.475 1858.65 177.225C1857.18 179.975 1856.45 183.275 1856.45 187.125V282H1821.25V78.5Z" fill="#0E0E0E"/>
<path d="M46.7857 243.211C88.177 255.403 163.586 260.107 189.092 292.015V112.211C163.587 80.3027 88.177 75.5988 46.7857 63.4065V243.211ZM46.7857 30.8801V28.262C88.177 40.4544 163.586 45.1582 189.092 77.066L196.5 79.1985L203.908 76.8041C229.413 44.8962 304.823 40.1924 346.214 28V30.6181C357.71 34.0803 364.929 37.0914 364.929 37.0914V65.1628L393 54.4414V280.377C393 280.377 226.131 292.074 196.5 343.928L196.499 344.19C166.869 292.336 0 280.639 0 280.639V54.7034L28.0714 65.4248V37.3534C28.0714 37.3534 35.2895 34.3423 46.7857 30.8801ZM60.8214 219.878V190.668C96.0885 198.702 144.665 204.089 173.107 222.157V251.366C144.665 233.298 96.0885 227.912 60.8214 219.878ZM60.8214 169.491V140.282C96.0885 148.316 144.665 153.702 173.107 171.771V200.98C144.665 182.911 96.0885 177.525 60.8214 169.491ZM60.8214 118.15V88.9412C96.0885 96.9752 144.665 102.361 173.107 120.43V149.639C144.665 131.57 96.0885 126.184 60.8214 118.15ZM346.214 242.949V63.1445C304.823 75.3368 229.413 80.0407 203.908 111.949V291.753C229.414 259.845 304.823 255.141 346.214 242.949ZM332.179 219.616C296.911 227.65 248.334 233.036 219.893 251.104V221.895C248.334 203.826 296.911 198.44 332.179 190.406V219.616ZM332.179 169.229C296.911 177.263 248.334 182.649 219.893 200.718V171.509C248.335 153.44 296.911 148.054 332.179 140.02V169.229ZM332.179 117.888C296.911 125.922 248.334 131.308 219.893 149.377V120.168C248.334 102.099 296.911 96.7132 332.179 88.6792V117.888Z" fill="black"/>
</svg>
