<svg width="798" height="363" viewBox="0 0 798 363" fill="none" xmlns="http://www.w3.org/2000/svg">
<path d="M68.608 197.676V291H16.5128V72.8182H66.9034V157.406H68.7145C72.4077 147.321 78.4446 139.437 86.8253 133.756C95.277 128.074 105.611 125.233 117.827 125.233C129.332 125.233 139.347 127.79 147.869 132.903C156.392 137.946 162.997 145.084 167.685 154.317C172.443 163.55 174.787 174.345 174.716 186.703V291H122.621V196.93C122.692 187.839 120.419 180.737 115.803 175.624C111.186 170.51 104.688 167.953 96.3068 167.953C90.8381 167.953 86.0085 169.161 81.8182 171.575C77.6989 173.919 74.4673 177.293 72.1236 181.696C69.8509 186.099 68.679 191.426 68.608 197.676ZM327.811 220.368V127.364H379.799V291H330.154V260.531H328.45C324.828 270.545 318.649 278.5 309.913 284.395C301.248 290.219 290.772 293.131 278.485 293.131C267.335 293.131 257.534 290.574 249.082 285.46C240.63 280.347 234.061 273.209 229.373 264.047C224.686 254.814 222.306 244.018 222.235 231.661V127.364H274.331V221.433C274.402 230.311 276.745 237.307 281.362 242.42C285.978 247.534 292.264 250.091 300.218 250.091C305.403 250.091 310.055 248.955 314.174 246.682C318.365 244.338 321.667 240.964 324.082 236.561C326.568 232.087 327.811 226.689 327.811 220.368ZM480.053 72.8182V291H427.958V72.8182H480.053ZM528.212 291V127.364H580.307V291H528.212ZM554.313 108.294C546.998 108.294 540.712 105.879 535.456 101.05C530.201 96.1491 527.573 90.2543 527.573 83.3651C527.573 76.5469 530.201 70.723 535.456 65.8935C540.712 60.9929 546.998 58.5426 554.313 58.5426C561.699 58.5426 567.985 60.9929 573.169 65.8935C578.425 70.723 581.053 76.5469 581.053 83.3651C581.053 90.2543 578.425 96.1491 573.169 101.05C567.985 105.879 561.699 108.294 554.313 108.294ZM704.851 294.089C687.663 294.089 672.891 290.574 660.533 283.543C648.246 276.44 638.764 266.568 632.088 253.926C625.483 241.213 622.18 226.476 622.18 209.714C622.18 192.882 625.483 178.145 632.088 165.503C638.764 152.79 648.246 142.918 660.533 135.886C672.891 128.784 687.663 125.233 704.851 125.233C722.038 125.233 736.776 128.784 749.062 135.886C761.42 142.918 770.902 152.79 777.507 165.503C784.183 178.145 787.521 192.882 787.521 209.714C787.521 226.476 784.183 241.213 777.507 253.926C770.902 266.568 761.42 276.44 749.062 283.543C736.776 290.574 722.038 294.089 704.851 294.089ZM705.17 254.778C711.42 254.778 716.712 252.861 721.044 249.026C725.376 245.19 728.679 239.864 730.952 233.045C733.295 226.227 734.467 218.344 734.467 209.395C734.467 200.304 733.295 192.349 730.952 185.531C728.679 178.713 725.376 173.386 721.044 169.551C716.712 165.716 711.42 163.798 705.17 163.798C698.707 163.798 693.239 165.716 688.764 169.551C684.361 173.386 680.987 178.713 678.643 185.531C676.371 192.349 675.234 200.304 675.234 209.395C675.234 218.344 676.371 226.227 678.643 233.045C680.987 239.864 684.361 245.19 688.764 249.026C693.239 252.861 698.707 254.778 705.17 254.778Z" fill="white"/>
<circle cx="553.5" cy="80.5" r="28.5" fill="#967DD1"/>
</svg>
