<svg width="1966" height="358" viewBox="0 0 1966 358" fill="none" xmlns="http://www.w3.org/2000/svg">
<path d="M563.983 285.3C555.367 285.3 547.667 284.475 540.883 282.825C534.1 281.175 527.958 278.975 522.458 276.225C516.958 273.292 512.008 269.808 507.608 265.775C503.392 261.742 499.542 257.342 496.058 252.575L508.158 242.675C515.308 251.842 523.192 258.9 531.808 263.85C540.425 268.617 551.333 271 564.533 271C579.933 271 591.758 267.608 600.008 260.825C608.258 253.858 612.383 243.867 612.383 230.85C612.383 218.933 608.9 210.133 601.933 204.45C595.15 198.767 585.433 194.917 572.783 192.9L551.333 189.325C541.8 187.675 533.825 185.2 527.408 181.9C521.175 178.6 516.133 174.75 512.283 170.35C508.433 165.767 505.683 160.725 504.033 155.225C502.567 149.725 501.833 144.042 501.833 138.175C501.833 120.942 507.425 108.108 518.608 99.675C529.975 91.0583 545.192 86.75 564.258 86.75C579.842 86.75 592.583 89.3167 602.483 94.45C612.567 99.4 620.633 106.275 626.683 115.075L615.133 125.25C609.633 117.55 602.85 111.592 594.783 107.375C586.9 103.158 576.542 101.05 563.708 101.05C549.408 101.05 538.225 104.167 530.158 110.4C522.275 116.45 518.333 125.525 518.333 137.625C518.333 148.808 521.633 157.333 528.233 163.2C534.833 168.883 544.642 172.733 557.658 174.75L578.833 178.325C588.55 179.975 596.617 182.542 603.033 186.025C609.45 189.325 614.583 193.267 618.433 197.85C622.283 202.433 624.942 207.475 626.408 212.975C628.058 218.475 628.883 224.25 628.883 230.3C628.883 247.9 623.2 261.467 611.833 271C600.467 280.533 584.517 285.3 563.983 285.3ZM728.876 285.3C709.443 285.3 694.226 278.792 683.226 265.775C672.409 252.758 667.001 234.517 667.001 211.05C667.001 187.583 672.409 169.342 683.226 156.325C694.226 143.308 709.443 136.8 728.876 136.8C748.309 136.8 763.434 143.308 774.251 156.325C785.251 169.342 790.751 187.583 790.751 211.05C790.751 234.517 785.251 252.758 774.251 265.775C763.434 278.792 748.309 285.3 728.876 285.3ZM728.876 271.55C742.809 271.55 753.809 267.15 761.876 258.35C769.943 249.55 773.976 236.717 773.976 219.85V202.25C773.976 185.383 769.943 172.55 761.876 163.75C753.809 154.95 742.809 150.55 728.876 150.55C714.943 150.55 703.943 154.95 695.876 163.75C687.809 172.55 683.776 185.383 683.776 202.25V219.85C683.776 236.717 687.809 249.55 695.876 258.35C703.943 267.15 714.943 271.55 728.876 271.55ZM834.369 268.525H886.069V91.975H834.369V78.5H901.744V268.525H953.169V282H834.369V268.525ZM1058.66 285.3C1050.04 285.3 1042.34 284.475 1035.56 282.825C1028.78 281.175 1022.64 278.975 1017.14 276.225C1011.64 273.292 1006.69 269.808 1002.29 265.775C998.069 261.742 994.219 257.342 990.736 252.575L1002.84 242.675C1009.99 251.842 1017.87 258.9 1026.49 263.85C1035.1 268.617 1046.01 271 1059.21 271C1074.61 271 1086.44 267.608 1094.69 260.825C1102.94 253.858 1107.06 243.867 1107.06 230.85C1107.06 218.933 1103.58 210.133 1096.61 204.45C1089.83 198.767 1080.11 194.917 1067.46 192.9L1046.01 189.325C1036.48 187.675 1028.5 185.2 1022.09 181.9C1015.85 178.6 1010.81 174.75 1006.96 170.35C1003.11 165.767 1000.36 160.725 998.711 155.225C997.244 149.725 996.511 144.042 996.511 138.175C996.511 120.942 1002.1 108.108 1013.29 99.675C1024.65 91.0583 1039.87 86.75 1058.94 86.75C1074.52 86.75 1087.26 89.3167 1097.16 94.45C1107.24 99.4 1115.31 106.275 1121.36 115.075L1109.81 125.25C1104.31 117.55 1097.53 111.592 1089.46 107.375C1081.58 103.158 1071.22 101.05 1058.39 101.05C1044.09 101.05 1032.9 104.167 1024.84 110.4C1016.95 116.45 1013.01 125.525 1013.01 137.625C1013.01 148.808 1016.31 157.333 1022.91 163.2C1029.51 168.883 1039.32 172.733 1052.34 174.75L1073.51 178.325C1083.23 179.975 1091.29 182.542 1097.71 186.025C1104.13 189.325 1109.26 193.267 1113.11 197.85C1116.96 202.433 1119.62 207.475 1121.09 212.975C1122.74 218.475 1123.56 224.25 1123.56 230.3C1123.56 247.9 1117.88 261.467 1106.51 271C1095.14 280.533 1079.19 285.3 1058.66 285.3ZM1225.75 285.3C1205.95 285.3 1190.37 278.883 1179 266.05C1167.82 253.033 1162.23 234.792 1162.23 211.325C1162.23 199.592 1163.7 189.142 1166.63 179.975C1169.56 170.625 1173.69 162.833 1179 156.6C1184.5 150.183 1191.1 145.325 1198.8 142.025C1206.5 138.542 1215.03 136.8 1224.38 136.8C1233.91 136.8 1242.44 138.542 1249.95 142.025C1257.47 145.325 1263.8 150.092 1268.93 156.325C1274.25 162.558 1278.28 169.983 1281.03 178.6C1283.78 187.217 1285.15 196.75 1285.15 207.2V214.075H1178.73V220.95C1178.73 236.167 1182.85 248.45 1191.1 257.8C1199.35 266.967 1210.9 271.55 1225.75 271.55C1236.2 271.55 1245.1 269.167 1252.43 264.4C1259.95 259.633 1265.72 252.575 1269.75 243.225L1281.58 250.65C1277.36 261.1 1270.49 269.533 1260.95 275.95C1251.42 282.183 1239.69 285.3 1225.75 285.3ZM1224.38 150C1217.41 150 1211.09 151.283 1205.4 153.85C1199.9 156.233 1195.14 159.625 1191.1 164.025C1187.25 168.425 1184.23 173.742 1182.03 179.975C1179.83 186.208 1178.73 193.083 1178.73 200.6V202.25H1268.38V200.05C1268.38 184.65 1264.44 172.458 1256.55 163.475C1248.85 154.492 1238.13 150 1224.38 150ZM1437.67 282C1431.25 282 1426.67 280.442 1423.92 277.325C1421.17 274.208 1419.61 269.992 1419.25 264.675V259.725H1417.87C1414.75 267.242 1409.62 273.383 1402.47 278.15C1395.32 282.917 1385.6 285.3 1373.32 285.3C1358.47 285.3 1346.74 281.725 1338.12 274.575C1329.69 267.242 1325.47 256.975 1325.47 243.775C1325.47 237.542 1326.48 231.95 1328.5 227C1330.7 221.867 1334.09 217.558 1338.67 214.075C1343.44 210.592 1349.49 207.933 1356.82 206.1C1364.15 204.083 1373.14 203.075 1383.77 203.075H1418.42V185.75C1418.42 173.833 1415.12 164.942 1408.52 159.075C1402.1 153.208 1393.12 150.275 1381.57 150.275C1362.14 150.275 1348.57 158.067 1340.87 173.65L1330.15 165.95C1333.81 157.7 1339.95 150.825 1348.57 145.325C1357.37 139.642 1368.65 136.8 1382.4 136.8C1398.53 136.8 1411.18 141.017 1420.35 149.45C1429.51 157.7 1434.1 169.25 1434.1 184.1V268.25H1455.27V282H1437.67ZM1375.8 272.1C1381.85 272.1 1387.44 271.367 1392.57 269.9C1397.7 268.433 1402.2 266.417 1406.05 263.85C1409.9 261.1 1412.92 257.8 1415.12 253.95C1417.32 250.1 1418.42 245.792 1418.42 241.025V214.9H1383.77C1368.92 214.9 1358.2 217.192 1351.6 221.775C1345.18 226.175 1341.97 232.225 1341.97 239.925V247.075C1341.97 255.325 1345 261.558 1351.05 265.775C1357.28 269.992 1365.53 272.1 1375.8 272.1ZM1492.29 268.525H1536.84V153.575H1492.29V140.1H1552.51V172.55H1553.61C1556.73 162.65 1562.05 154.767 1569.56 148.9C1577.26 143.033 1587.35 140.1 1599.81 140.1H1624.29V155.5H1595.14C1582.31 155.5 1571.95 159.35 1564.06 167.05C1556.36 174.567 1552.51 184.742 1552.51 197.575V268.525H1610.26V282H1492.29V268.525ZM1723.73 285.3C1703.93 285.3 1688.62 278.792 1677.81 265.775C1666.99 252.758 1661.58 234.517 1661.58 211.05C1661.58 187.583 1666.99 169.342 1677.81 156.325C1688.81 143.308 1704.02 136.8 1723.46 136.8C1736.66 136.8 1747.47 139.825 1755.91 145.875C1764.34 151.742 1770.39 159.35 1774.06 168.7L1761.41 175.025C1758.47 167.142 1753.8 161.092 1747.38 156.875C1740.96 152.658 1732.99 150.55 1723.46 150.55C1708.97 150.55 1697.79 155.225 1689.91 164.575C1682.21 173.742 1678.36 185.933 1678.36 201.15V220.95C1678.36 236.167 1682.21 248.45 1689.91 257.8C1697.79 266.967 1709.06 271.55 1723.73 271.55C1733.81 271.55 1742.25 269.258 1749.03 264.675C1755.81 260.092 1761.04 253.675 1764.71 245.425L1776.26 252.85C1772.22 262.2 1765.9 269.992 1757.28 276.225C1748.66 282.275 1737.48 285.3 1723.73 285.3ZM1830.6 78.5H1846.27V162.1H1847.37C1850.12 155.5 1854.71 149.633 1861.12 144.5C1867.72 139.367 1876.98 136.8 1888.9 136.8C1904.3 136.8 1916.22 141.475 1924.65 150.825C1933.27 159.992 1937.57 173.192 1937.57 190.425V282H1921.9V193.175C1921.9 178.508 1918.69 167.783 1912.27 161C1906.04 154.217 1896.87 150.825 1884.77 150.825C1879.82 150.825 1875.06 151.467 1870.47 152.75C1865.89 154.033 1861.77 155.958 1858.1 158.525C1854.62 161.092 1851.77 164.392 1849.57 168.425C1847.37 172.275 1846.27 176.858 1846.27 182.175V282H1830.6V78.5Z" fill="#0E0E0E"/>
<path d="M46.7857 243.211C88.177 255.403 163.586 260.107 189.092 292.015V112.211C163.587 80.3027 88.177 75.5988 46.7857 63.4065V243.211ZM46.7857 30.8801V28.262C88.177 40.4544 163.586 45.1582 189.092 77.066L196.5 79.1985L203.908 76.8041C229.413 44.8962 304.823 40.1924 346.214 28V30.6181C357.71 34.0803 364.929 37.0914 364.929 37.0914V65.1628L393 54.4414V280.377C393 280.377 226.131 292.074 196.5 343.928L196.499 344.19C166.869 292.336 0 280.639 0 280.639V54.7034L28.0714 65.4248V37.3534C28.0714 37.3534 35.2895 34.3423 46.7857 30.8801ZM60.8214 219.878V190.668C96.0885 198.702 144.665 204.089 173.107 222.157V251.366C144.665 233.298 96.0885 227.912 60.8214 219.878ZM60.8214 169.491V140.282C96.0885 148.316 144.665 153.702 173.107 171.771V200.98C144.665 182.911 96.0885 177.525 60.8214 169.491ZM60.8214 118.15V88.9412C96.0885 96.9752 144.665 102.361 173.107 120.43V149.639C144.665 131.57 96.0885 126.184 60.8214 118.15ZM346.214 242.949V63.1445C304.823 75.3368 229.413 80.0407 203.908 111.949V291.753C229.414 259.845 304.823 255.141 346.214 242.949ZM332.179 219.616C296.911 227.65 248.334 233.036 219.893 251.104V221.895C248.334 203.826 296.911 198.44 332.179 190.406V219.616ZM332.179 169.229C296.911 177.263 248.334 182.649 219.893 200.718V171.509C248.335 153.44 296.911 148.054 332.179 140.02V169.229ZM332.179 117.888C296.911 125.922 248.334 131.308 219.893 149.377V120.168C248.334 102.099 296.911 96.7132 332.179 88.6792V117.888Z" fill="black"/>
</svg>
