<svg width="1271" height="367" viewBox="0 0 1271 367" fill="none" xmlns="http://www.w3.org/2000/svg">
<path d="M541.608 201.676V295H489.513V76.8182H539.903V161.406H541.714C545.408 151.321 551.445 143.437 559.825 137.756C568.277 132.074 578.611 129.233 590.827 129.233C602.332 129.233 612.347 131.79 620.869 136.903C629.392 141.946 635.997 149.084 640.685 158.317C645.443 167.55 647.787 178.345 647.716 190.703V295H595.621V200.93C595.692 191.839 593.419 184.737 588.803 179.624C584.186 174.51 577.688 171.953 569.307 171.953C563.838 171.953 559.009 173.161 554.818 175.575C550.699 177.919 547.467 181.293 545.124 185.696C542.851 190.099 541.679 195.426 541.608 201.676ZM800.811 224.368V131.364H852.799V295H803.154V264.531H801.45C797.828 274.545 791.649 282.5 782.913 288.395C774.248 294.219 763.772 297.131 751.485 297.131C740.335 297.131 730.534 294.574 722.082 289.46C713.63 284.347 707.061 277.209 702.373 268.047C697.686 258.814 695.306 248.018 695.235 235.661V131.364H747.331V225.433C747.402 234.311 749.745 241.307 754.362 246.42C758.978 251.534 765.264 254.091 773.218 254.091C778.403 254.091 783.055 252.955 787.174 250.682C791.365 248.338 794.667 244.964 797.082 240.561C799.568 236.087 800.811 230.689 800.811 224.368ZM953.053 76.8182V295H900.958V76.8182H953.053ZM1001.21 295V131.364H1053.31V295H1001.21ZM1027.31 112.294C1020 112.294 1013.71 109.879 1008.46 105.05C1003.2 100.149 1000.57 94.2543 1000.57 87.3651C1000.57 80.5469 1003.2 74.723 1008.46 69.8935C1013.71 64.9929 1020 62.5426 1027.31 62.5426C1034.7 62.5426 1040.98 64.9929 1046.17 69.8935C1051.43 74.723 1054.05 80.5469 1054.05 87.3651C1054.05 94.2543 1051.43 100.149 1046.17 105.05C1040.98 109.879 1034.7 112.294 1027.31 112.294ZM1177.85 298.089C1160.66 298.089 1145.89 294.574 1133.53 287.543C1121.25 280.44 1111.76 270.568 1105.09 257.926C1098.48 245.213 1095.18 230.476 1095.18 213.714C1095.18 196.882 1098.48 182.145 1105.09 169.503C1111.76 156.79 1121.25 146.918 1133.53 139.886C1145.89 132.784 1160.66 129.233 1177.85 129.233C1195.04 129.233 1209.78 132.784 1222.06 139.886C1234.42 146.918 1243.9 156.79 1250.51 169.503C1257.18 182.145 1260.52 196.882 1260.52 213.714C1260.52 230.476 1257.18 245.213 1250.51 257.926C1243.9 270.568 1234.42 280.44 1222.06 287.543C1209.78 294.574 1195.04 298.089 1177.85 298.089ZM1178.17 258.778C1184.42 258.778 1189.71 256.861 1194.04 253.026C1198.38 249.19 1201.68 243.864 1203.95 237.045C1206.3 230.227 1207.47 222.344 1207.47 213.395C1207.47 204.304 1206.3 196.349 1203.95 189.531C1201.68 182.713 1198.38 177.386 1194.04 173.551C1189.71 169.716 1184.42 167.798 1178.17 167.798C1171.71 167.798 1166.24 169.716 1161.76 173.551C1157.36 177.386 1153.99 182.713 1151.64 189.531C1149.37 196.349 1148.23 204.304 1148.23 213.395C1148.23 222.344 1149.37 230.227 1151.64 237.045C1153.99 243.864 1157.36 249.19 1161.76 253.026C1166.24 256.861 1171.71 258.778 1178.17 258.778Z" fill="white"/>
<circle cx="1026.5" cy="84.5" r="28.5" fill="#967DD1"/>
<ellipse cx="261.5" cy="99.5" rx="12.5" ry="11.5" fill="#C0EFFA"/>
<path fill-rule="evenodd" clip-rule="evenodd" d="M216.257 0.546264C191.374 3.1477 168.617 15.1498 154.265 33.2415C148.114 40.994 137.276 59.88 133.564 69.3148L132.547 71.8992L128.573 71.5288C122.994 71.0089 110.122 72.0959 101.749 73.794C47.0528 84.8864 6.90344 138.832 0.522224 209.804C-0.201606 217.859 -0.166383 237.287 0.5868 245.145C1.95697 259.44 5.34247 275.513 9.7154 288.485L11.9115 295L13.6257 294.656C14.5685 294.467 30.8932 294.312 49.9024 294.312H84.4648V290.527C84.4648 278.721 88.357 265.149 94.4047 255.868C101.446 245.061 111.914 237.745 125.979 233.801C131.374 232.289 132.435 232.192 143.463 232.207C154.196 232.222 155.736 232.357 161.403 233.788C188.593 240.652 207.12 258.293 212.177 282.132C212.645 284.34 213.028 287.155 213.028 288.389C213.028 289.623 213.193 291.46 213.395 292.472L213.762 294.312H257.13H300.499V242.444V190.575L302.7 190.916C305.485 191.349 320.172 192.808 330.139 193.642C341.982 194.634 360.322 194.472 368.424 193.305C403.361 188.27 420.637 168.212 430.229 121.551C430.834 118.604 431.15 116.02 430.93 115.81C430.555 115.452 404.335 110.598 402.776 110.598C402.381 110.598 402.057 111.194 402.056 111.923C402.052 114.077 398.166 129.913 396.312 135.329C394.092 141.815 390.519 149.03 388.188 151.735L386.342 153.877L380.257 151.898C367.61 147.786 359.078 142.849 352.36 135.755C343.896 126.817 339.542 116.574 337.199 100.082C332.316 65.7053 314.946 36.8157 288.464 19.0278C267.022 4.62448 240.987 -2.03928 216.257 0.546264ZM241.207 30.8297C255.431 33.4976 267.846 39.3364 278.655 48.4409C294.95 62.1665 304.844 81.2774 308.396 105.887C311.738 129.047 319.95 145.855 334.75 159.829L340.093 164.874L335.119 164.476C314.104 162.796 253.769 155.609 238.537 152.971C214.605 148.827 197.541 143.967 183.821 137.387C153.719 122.951 148.359 103.548 165.432 70.8222C172.836 56.6297 180.215 47.0483 188.112 41.375C195.728 35.903 208.025 31.1612 217.725 29.9564C223.53 29.2351 234.976 29.6608 241.207 30.8297ZM126.399 106.329C127.32 117.764 130.262 126.596 136.109 135.476C146.273 150.912 163.585 162.623 188.944 171.218C202.545 175.828 221.282 180.183 239.446 182.957C245.79 183.925 275.502 187.734 276.715 187.734C276.881 187.734 277.017 206.396 277.017 229.204C277.017 267.346 276.939 270.688 276.044 270.863C275.509 270.968 267.158 270.921 257.487 270.759L239.903 270.465L237.718 264.282C227.024 234.013 200.001 212.055 163.692 204.132C158.302 202.956 155.867 202.79 143.757 202.771C131.483 202.752 129.257 202.901 123.575 204.12C96.5281 209.927 75.8863 225.573 64.7893 248.678C61.7965 254.91 58.6018 263.918 57.7383 268.563L57.325 270.784L46.0924 270.624L34.8593 270.465L33.5478 265.165C30.5239 252.947 29.6375 244.464 29.6087 227.48C29.5799 210.752 29.968 206.316 32.6197 193.034C41.3761 149.18 66.2704 116.001 98.554 105.156C106.607 102.451 112.583 101.398 120.634 101.265L125.984 101.177L126.399 106.329Z" fill="white"/>
</svg>
