<svg width="391" height="391" viewBox="0 0 391 391" fill="none" xmlns="http://www.w3.org/2000/svg">
<circle cx="195.5" cy="195.5" r="195.5" fill="#967DD1"/>
<path d="M170.891 210.453V296H123.137V96H169.328V173.539H170.988C174.374 164.294 179.908 157.068 187.59 151.859C195.337 146.651 204.81 144.047 216.008 144.047C226.555 144.047 235.734 146.391 243.547 151.078C251.359 155.701 257.414 162.243 261.711 170.707C266.073 179.171 268.221 189.066 268.156 200.395V296H220.402V209.77C220.467 201.436 218.384 194.926 214.152 190.238C209.921 185.551 203.964 183.207 196.281 183.207C191.268 183.207 186.841 184.314 183 186.527C179.224 188.676 176.262 191.768 174.113 195.805C172.03 199.841 170.956 204.724 170.891 210.453Z" fill="white"/>
</svg>
